<svg xmlns="http://www.w3.org/2000/svg" xmlns:xlink="http://www.w3.org/1999/xlink" width="386" height="280" viewBox="0 0 386 280"><defs><path id="a" d="M.756 6.268c.128 2.357 2.101 4.292 4.406 4.32l153.018 1.908c2.304.03 4.068-1.859 3.939-4.216l-.079-1.445c-.13-2.358-2.103-4.292-4.407-4.32L.443.555l.313 5.713z"/><path id="d" d="M0 .247h385.44V88.9H0z"/><path id="f" d="M.205.089h115.988V132.85H.205z"/><linearGradient id="b" x1=".169%" x2="99.972%" y1="49.955%" y2="50.047%"><stop offset="0%" stop-color="#778C9E"/><stop offset="100%" stop-color="#9ABAC3"/></linearGradient></defs><g fill="none" fill-rule="evenodd"><path fill="#485A71" d="M235.664 142.382l-129.857-1.62c-4.538-.056-8.423-3.864-8.677-8.505l-4.127-75.35c-.297-5.425 3.761-9.77 9.065-9.703l118.867 1.482c5.305.066 9.844 4.517 10.142 9.942l4.587 83.754z"/><path fill="#1A1F36" d="M100.31 131.822L96.237 57.42c-.213-3.875 2.687-6.978 6.476-6.931l117.94 1.47c3.788.047 7.031 3.227 7.244 7.102l4.38 80-126.184-1.573c-3.024-.038-5.612-2.575-5.781-5.667"/><path fill="#FFF" d="M225.993 135.337l-118.694-1.48-4.2-76.71 118.693 1.479z"/><g transform="translate(96.6 130.111)"><mask id="c" fill="#fff"><use xlink:href="#a"/></mask><path fill="url(#b)" d="M.756 6.268c.128 2.357 2.101 4.292 4.406 4.32l153.018 1.908c2.304.03 4.068-1.859 3.939-4.216l-.079-1.445c-.13-2.358-2.103-4.292-4.407-4.32L.443.555l.313 5.713z" mask="url(#c)"/></g><g><path fill="#485A71" d="M127.974 141.074l-26.305-.329c-2.252-.028-4.18-1.918-4.306-4.22l-.319-5.83 30.383.38c2.268.028 4.21 1.932 4.338 4.252l.087 1.596c.127 2.32-1.609 4.179-3.878 4.15m84.108-4.856l-29.892-.373c-1.903-.023-3.531-1.62-3.638-3.566l-.033-.597 36.781.46.033.595c.107 1.946-1.35 3.504-3.251 3.48"/><path fill="#FFF" d="M244.79 136.338l-9.938-.124c-.505-.006-.938-.43-.966-.947l-.017-.316c-.029-.517.358-.931.864-.925l9.938.124c.505.006.938.43.966.948l.017.316c.028.517-.358.93-.864.924m8.221.102l-3.379-.041c-.504-.006-.938-.43-.966-.947l-.017-.317c-.028-.517.358-.93.864-.925l3.378.043c.506.006.938.43.966.948l.018.316c.028.517-.358.93-.864.924"/><path fill="#85A0AD" d="M114.093 49.898l-8.262-.102a.835.835 0 01-.803-.788l-.015-.264a.71.71 0 01.718-.768l8.262.103c.42.005.78.357.803.787l.014.263a.709.709 0 01-.717.769m6.834.085l-2.809-.035a.836.836 0 01-.803-.787l-.014-.263a.71.71 0 01.717-.769l2.81.035c.42.005.78.358.802.787l.015.264a.71.71 0 01-.718.768"/><path fill="#FFF" d="M208.666 89.26h-81.544a3.378 3.378 0 01-3.373-3.19l-.541-9.633a3.379 3.379 0 013.372-3.568h82.086a3.378 3.378 0 013.379 3.378v9.634a3.378 3.378 0 01-3.379 3.378"/><path stroke="#9BC12D" stroke-width=".7" d="M208.666 89.26h-81.544a3.378 3.378 0 01-3.373-3.19l-.541-9.633a3.379 3.379 0 013.372-3.568h82.086a3.378 3.378 0 013.379 3.378v9.634a3.378 3.378 0 01-3.379 3.378z"/><path fill="#FFF" d="M210.947 113.128h-81.544a3.379 3.379 0 01-3.373-3.19l-.542-9.633a3.378 3.378 0 013.373-3.568h82.086a3.378 3.378 0 013.378 3.378v9.634a3.378 3.378 0 01-3.378 3.379"/><path stroke="#9BC12D" stroke-width=".7" d="M210.947 113.128h-81.544a3.379 3.379 0 01-3.373-3.19l-.542-9.633a3.378 3.378 0 013.373-3.568h82.086a3.378 3.378 0 013.378 3.378v9.634a3.378 3.378 0 01-3.378 3.379z"/><path fill="#1A1F36" d="M136.685 78.282c.2 0 .38.074.54.222a.79.79 0 01.267.523l.473 5.308c.018.2-.04.375-.174.524a.652.652 0 01-.5.222h-.885a.805.805 0 01-.552-.217.831.831 0 01-.28-.529l-.01-.104c-.001-.01-.006-.014-.014-.014-.018 0-.026.005-.026.014-.478.654-1.113.98-1.901.98-.763 0-1.33-.214-1.702-.64-.372-.428-.605-1.172-.7-2.236l-.294-3.308a.659.659 0 01.174-.523.648.648 0 01.5-.222h.923c.2 0 .38.074.54.222a.79.79 0 01.267.523l.284 3.178c.036.4.114.675.236.823.122.148.312.222.572.222a.875.875 0 00.644-.287c.187-.192.27-.402.25-.628l-.294-3.308a.659.659 0 01.174-.523.647.647 0 01.5-.222h.988zm5.52 2.418c1 .132 1.724.382 2.173.752.45.371.705.905.767 1.602.062.689-.139 1.22-.6 1.595-.46.375-1.17.562-2.133.562-.71 0-1.432-.07-2.164-.209a.954.954 0 01-.543-.327 1.04 1.04 0 01-.255-.601l-.03-.34a.455.455 0 01.182-.431.532.532 0 01.474-.092 8.053 8.053 0 001.853.235c.477 0 .703-.14.679-.418-.012-.13-.06-.227-.143-.288-.084-.06-.244-.109-.481-.144-.976-.157-1.696-.426-2.159-.81-.463-.384-.724-.898-.781-1.542-.059-.663.148-1.177.623-1.543.474-.366 1.223-.55 2.246-.55.676 0 1.304.044 1.884.131.22.035.404.135.553.301a.964.964 0 01.253.575l.024.274a.498.498 0 01-.187.452.563.563 0 01-.49.124 8.6 8.6 0 00-1.639-.157c-.286 0-.483.03-.59.092-.107.06-.154.16-.142.3.023.262.232.414.626.458m8.116.326c.078 0 .113-.039.106-.117-.044-.401-.154-.688-.33-.863-.176-.174-.424-.26-.745-.26-.338 0-.584.084-.738.253-.154.17-.233.465-.24.883.007.07.044.104.114.104h1.833zm-1.18-2.875c2.202 0 3.412 1.167 3.629 3.503a.635.635 0 01-.188.53.73.73 0 01-.54.215h-3.406c-.078 0-.105.04-.08.118.11.366.304.623.582.771.277.148.698.223 1.261.223a6.48 6.48 0 001.286-.157.579.579 0 01.504.11.626.626 0 01.263.465l.019.209a.901.901 0 01-.15.595.702.702 0 01-.484.32 8.575 8.575 0 01-1.676.157c-1.23 0-2.205-.303-2.922-.908-.718-.606-1.126-1.48-1.229-2.621-.1-1.134.117-2.006.652-2.615.535-.61 1.362-.915 2.48-.915zm9.298.156a.642.642 0 01.537.183c.16.149.25.327.268.536l.03.34a.66.66 0 01-.162.517.761.761 0 01-.497.254c-.66.087-1.17.339-1.532.752-.362.414-.517.918-.464 1.51l.172 1.935a.66.66 0 01-.174.523.647.647 0 01-.5.223h-1.054a.78.78 0 01-.54-.223.79.79 0 01-.267-.523l-.472-5.308a.659.659 0 01.174-.523.647.647 0 01.5-.222h.988c.2 0 .38.074.54.222a.79.79 0 01.267.523l.05.55c0 .009.005.013.014.013.008 0 .017-.004.024-.014.482-.723 1.18-1.145 2.098-1.268m6.526-.156c.788 0 1.374.226 1.757.68.383.452.623 1.228.72 2.327l.283 3.176c.019.2-.04.375-.174.523a.65.65 0 01-.5.222h-.923c-.2 0-.38-.074-.54-.222a.792.792 0 01-.268-.523l-.283-3.176c-.035-.401-.116-.676-.242-.825-.126-.148-.336-.221-.631-.221a.87.87 0 00-.643.287c-.188.192-.27.401-.25.627l.294 3.308c.018.2-.04.375-.175.523a.647.647 0 01-.5.222h-.988c-.2 0-.38-.074-.54-.222a.79.79 0 01-.267-.523l-.473-5.308a.664.664 0 01.174-.523.65.65 0 01.5-.222h.885c.208 0 .392.072.552.216.16.144.253.32.28.53l.01.104c.001.009.006.013.015.013.017 0 .025-.004.025-.013.479-.654 1.113-.98 1.902-.98m7.861 4.183l-.007-.078c-.007-.079-.05-.118-.127-.118h-.404c-.866 0-1.276.261-1.23.784.035.392.27.589.703.589.338 0 .608-.107.81-.32.202-.214.287-.5.255-.857m-1.152-4.184c1.144 0 1.99.21 2.539.627.549.42.863 1.082.944 1.988l.318 3.57c.017.2-.04.374-.174.522a.651.651 0 01-.501.223h-.819a.804.804 0 01-.552-.217.835.835 0 01-.282-.529l-.009-.104c0-.01-.006-.014-.014-.014-.009 0-.017.005-.025.014-.496.654-1.152.98-1.967.98-.607 0-1.122-.194-1.547-.582-.425-.387-.664-.89-.72-1.51-.139-1.569.96-2.353 3.302-2.353h.402c.079 0 .114-.04.107-.117l-.001-.013c-.047-.523-.374-.785-.98-.785-.52 0-1.185.078-1.994.235a.615.615 0 01-.506-.124.627.627 0 01-.262-.465l-.019-.209a.872.872 0 01.15-.587.71.71 0 01.485-.315c.844-.156 1.552-.235 2.125-.235m12.559.001c.745 0 1.307.202 1.686.607.378.405.61 1.074.692 2.007l.319 3.57a.663.663 0 01-.175.522.648.648 0 01-.5.222h-.924a.755.755 0 01-.533-.222.801.801 0 01-.261-.523l-.319-3.569c-.025-.295-.087-.497-.183-.601-.096-.105-.256-.158-.482-.158a.737.737 0 00-.472.171c-.142.113-.208.222-.199.326l.342 3.831c.017.2-.04.375-.175.523a.65.65 0 01-.5.222h-.923a.757.757 0 01-.534-.222.804.804 0 01-.26-.523l-.319-3.569c-.026-.295-.087-.497-.183-.601-.096-.105-.257-.158-.482-.158a.737.737 0 00-.473.171c-.141.113-.207.222-.198.326l.34 3.831c.02.2-.039.375-.173.523a.648.648 0 01-.5.222h-.989a.777.777 0 01-.54-.222.792.792 0 01-.267-.523l-.473-5.308a.659.659 0 01.174-.523.648.648 0 01.5-.222h.794c.208 0 .391.072.552.216a.9.9 0 01.294.53l.028.157c0 .008.005.012.014.012.016 0 .025-.004.024-.012.205-.323.463-.576.772-.759.308-.183.618-.274.93-.274.399 0 .724.07.975.209.25.14.501.392.75.758 0 .01.005.013.014.013.017 0 .03-.004.038-.013.584-.645 1.184-.967 1.8-.967m7.887 2.875c.078 0 .114-.039.107-.117-.045-.401-.155-.688-.33-.863-.176-.174-.425-.26-.745-.26-.338 0-.585.084-.738.253-.154.17-.234.465-.24.883.006.07.043.104.113.104h1.833zm-1.18-2.875c2.202 0 3.412 1.167 3.628 3.503a.636.636 0 01-.187.53.732.732 0 01-.54.215h-3.405c-.079 0-.106.04-.081.118.11.366.305.623.582.771.278.148.698.223 1.261.223a6.52 6.52 0 001.287-.157.58.58 0 01.504.11.625.625 0 01.262.465l.018.209a.9.9 0 01-.148.595.703.703 0 01-.485.32 8.562 8.562 0 01-1.676.157c-1.231 0-2.205-.303-2.922-.908-.717-.606-1.127-1.48-1.228-2.621-.101-1.134.116-2.006.65-2.615.536-.61 1.362-.915 2.48-.915zm-52.569 25.873l.083.21a.686.686 0 01-.002.555.596.596 0 01-.398.346l-.887.262a.07.07 0 00-.048.051c-.006.027 0 .049.02.065l.65.746c.136.157.2.338.192.543a.583.583 0 01-.243.476l-.158.131a.632.632 0 01-.535.125.802.802 0 01-.496-.308l-.589-.784a.105.105 0 00-.074-.026c-.03 0-.05.009-.056.026l-.45.784a.635.635 0 01-.44.308.702.702 0 01-.558-.125l-.181-.13a.728.728 0 01-.328-.477.673.673 0 01.094-.543l.519-.746c.016-.016.018-.038.007-.065a.088.088 0 00-.056-.051l-.934-.262a.76.76 0 01-.473-.346.673.673 0 01-.088-.556l.046-.21a.592.592 0 01.327-.418.687.687 0 01.557-.026l.913.327c.027.01.05.004.07-.013a.075.075 0 00.027-.065l-.123-.942a.632.632 0 01.155-.523.626.626 0 01.494-.221h.208c.2 0 .377.073.533.221a.752.752 0 01.248.523l.045.942a.089.089 0 00.038.065.074.074 0 00.073.013l.855-.327a.672.672 0 01.548.026c.19.087.328.227.415.419m6.578 0l.084.21a.686.686 0 01-.002.555.596.596 0 01-.398.346l-.887.262a.07.07 0 00-.048.051c-.006.027 0 .049.019.065l.652.746c.135.157.2.338.19.543a.583.583 0 01-.242.476l-.158.131a.632.632 0 01-.535.125.802.802 0 01-.496-.308l-.59-.784a.105.105 0 00-.073-.026c-.03 0-.05.009-.056.026l-.45.784a.635.635 0 01-.44.308.702.702 0 01-.558-.125l-.181-.13a.728.728 0 01-.328-.477.673.673 0 01.094-.543l.519-.746c.016-.016.018-.038.007-.065a.088.088 0 00-.056-.051l-.934-.262a.76.76 0 01-.473-.346.673.673 0 01-.088-.556l.046-.21a.592.592 0 01.327-.418.687.687 0 01.557-.026l.913.327c.027.01.05.004.07-.013a.075.075 0 00.027-.065l-.123-.942a.632.632 0 01.155-.523.626.626 0 01.494-.221h.208c.199 0 .377.073.533.221a.752.752 0 01.248.523l.045.942a.089.089 0 00.038.065.074.074 0 00.073.013l.855-.327a.672.672 0 01.548.026c.19.087.328.227.415.419m6.579 0l.083.21a.686.686 0 01-.002.555.596.596 0 01-.398.346l-.887.262a.07.07 0 00-.048.051c-.006.027 0 .049.019.065l.652.746a.762.762 0 01.19.543.583.583 0 01-.243.476l-.157.131a.63.63 0 01-.535.125.8.8 0 01-.496-.308l-.59-.784a.107.107 0 00-.073-.026c-.031 0-.05.009-.056.026l-.45.784a.635.635 0 01-.441.308.703.703 0 01-.558-.125l-.18-.13a.726.726 0 01-.329-.477.673.673 0 01.095-.543l.519-.746c.016-.016.018-.038.007-.065a.09.09 0 00-.057-.051l-.933-.262a.764.764 0 01-.473-.346.675.675 0 01-.089-.556l.047-.21a.594.594 0 01.327-.418.685.685 0 01.556-.026l.914.327c.026.01.05.004.07-.013a.075.075 0 00.027-.065l-.123-.942a.632.632 0 01.155-.523.625.625 0 01.494-.221h.207c.2 0 .378.073.534.221a.749.749 0 01.248.523l.044.942a.092.092 0 00.039.065.074.074 0 00.073.013l.855-.327a.672.672 0 01.548.026c.19.087.328.227.415.419m6.578 0l.084.21a.689.689 0 01-.003.555.596.596 0 01-.398.346l-.887.262a.07.07 0 00-.047.051c-.007.027 0 .049.019.065l.651.746c.135.157.2.338.191.543a.581.581 0 01-.243.476l-.157.131a.632.632 0 01-.536.125.798.798 0 01-.494-.308l-.59-.784a.105.105 0 00-.075-.026c-.03 0-.049.009-.056.026l-.45.784a.635.635 0 01-.44.308.703.703 0 01-.558-.125l-.18-.13a.726.726 0 01-.329-.477.673.673 0 01.095-.543l.518-.746c.016-.016.018-.038.007-.065a.087.087 0 00-.056-.051l-.934-.262a.762.762 0 01-.472-.346.673.673 0 01-.089-.556l.047-.21a.593.593 0 01.326-.418.687.687 0 01.557-.026l.913.327c.027.01.05.004.07-.013a.075.075 0 00.027-.065l-.123-.942a.632.632 0 01.156-.523.626.626 0 01.493-.221h.208c.2 0 .377.073.533.221a.749.749 0 01.248.523l.046.942a.089.089 0 00.038.065c.023.017.047.022.072.013l.856-.327a.672.672 0 01.548.026c.19.087.327.227.414.419m6.579 0l.084.21a.689.689 0 01-.003.555.596.596 0 01-.398.346l-.887.262a.07.07 0 00-.047.051c-.007.027 0 .049.018.065l.652.746c.135.157.2.338.191.543a.581.581 0 01-.243.476l-.157.131a.632.632 0 01-.536.125.798.798 0 01-.495-.308l-.59-.784a.105.105 0 00-.074-.026c-.03 0-.049.009-.056.026l-.45.784a.635.635 0 01-.441.308.703.703 0 01-.557-.125l-.18-.13a.726.726 0 01-.33-.477.673.673 0 01.095-.543l.52-.746c.015-.016.017-.038.006-.065a.087.087 0 00-.057-.051l-.933-.262a.762.762 0 01-.472-.346.673.673 0 01-.09-.556l.048-.21a.593.593 0 01.326-.418.687.687 0 01.557-.026l.913.327c.027.01.05.004.07-.013a.075.075 0 00.027-.065l-.123-.942a.632.632 0 01.156-.523.626.626 0 01.493-.221h.208c.2 0 .377.073.533.221a.749.749 0 01.248.523l.046.942a.089.089 0 00.037.065c.024.017.048.022.073.013l.856-.327a.672.672 0 01.548.026c.19.087.327.227.414.419m6.579 0l.084.21a.689.689 0 01-.003.555.596.596 0 01-.398.346l-.887.262a.07.07 0 00-.048.051c-.006.027 0 .049.02.065l.651.746c.135.157.2.338.191.543a.581.581 0 01-.244.476l-.156.131a.632.632 0 01-.536.125.798.798 0 01-.495-.308l-.59-.784a.105.105 0 00-.074-.026c-.03 0-.049.009-.056.026l-.45.784a.635.635 0 01-.441.308.703.703 0 01-.557-.125l-.18-.13a.726.726 0 01-.33-.477.673.673 0 01.095-.543l.519-.746c.016-.016.018-.038.007-.065a.087.087 0 00-.057-.051l-.933-.262a.762.762 0 01-.472-.346.673.673 0 01-.09-.556l.048-.21a.593.593 0 01.326-.418.687.687 0 01.557-.026l.913.327c.027.01.05.004.07-.013a.075.075 0 00.027-.065l-.123-.942a.632.632 0 01.155-.523.626.626 0 01.494-.221h.208c.2 0 .377.073.533.221a.749.749 0 01.248.523l.045.942a.089.089 0 00.038.065c.024.017.048.022.073.013l.855-.327a.672.672 0 01.549.026c.19.087.327.227.414.419m6.579 0l.083.21a.686.686 0 01-.002.555.598.598 0 01-.398.346l-.887.262a.07.07 0 00-.048.051c-.006.027 0 .049.02.065l.65.746a.762.762 0 01.192.543.583.583 0 01-.244.476l-.156.131a.632.632 0 01-.536.125.802.802 0 01-.495-.308l-.59-.784a.105.105 0 00-.074-.026c-.03 0-.05.009-.056.026l-.45.784a.636.636 0 01-.441.308.703.703 0 01-.557-.125l-.181-.13a.726.726 0 01-.328-.477.67.67 0 01.094-.543l.519-.746c.015-.016.018-.038.007-.065a.09.09 0 00-.057-.051l-.933-.262a.76.76 0 01-.472-.346.673.673 0 01-.09-.556l.047-.21a.594.594 0 01.327-.418.685.685 0 01.556-.026l.914.327c.026.01.05.004.07-.013a.075.075 0 00.027-.065l-.123-.942a.632.632 0 01.155-.523.626.626 0 01.494-.221h.208c.2 0 .377.073.533.221a.749.749 0 01.248.523l.045.942a.089.089 0 00.038.065.074.074 0 00.073.013l.855-.327a.672.672 0 01.549.026c.19.087.327.227.414.419m6.578 0l.084.21a.686.686 0 01-.002.555.596.596 0 01-.399.346l-.887.262a.07.07 0 00-.047.051c-.006.027 0 .049.019.065l.651.746c.136.157.2.338.192.543a.583.583 0 01-.243.476l-.158.131a.632.632 0 01-.535.125.802.802 0 01-.496-.308l-.59-.784a.105.105 0 00-.074-.026c-.03 0-.049.009-.056.026l-.45.784a.635.635 0 01-.44.308.702.702 0 01-.557-.125l-.181-.13a.728.728 0 01-.329-.477.673.673 0 01.095-.543l.518-.746c.017-.016.019-.038.007-.065a.088.088 0 00-.056-.051l-.933-.262a.76.76 0 01-.473-.346.673.673 0 01-.089-.556l.047-.21a.592.592 0 01.326-.418.687.687 0 01.558-.026l.912.327c.028.01.05.004.071-.013a.075.075 0 00.027-.065l-.124-.942a.632.632 0 01.156-.523.626.626 0 01.493-.221h.208c.2 0 .378.073.534.221a.752.752 0 01.248.523l.045.942a.089.089 0 00.038.065.074.074 0 00.073.013l.855-.327a.672.672 0 01.548.026.81.81 0 01.414.419"/><path fill="#D87430" d="M298.494 133.406c-25.647.726-72.573-3.996-88.597-20.61-2.643-2.726-4.442-5.784-5.174-9.189-5.225-24.338.799-50.875 4.04-71.92 1.4-9.126 5.309-16.165 12.596-21.208 9.331-6.465 24.225-9.647 46.51-9.73 0 0-18.638.563-24.748 11.25-7.803 13.64-11.211 34.176-11.477 56.158-.359 29.85-3.016 38.133 8.054 46.657 15.875 12.226 58.796 18.592 58.796 18.592"/><g transform="translate(0 191.011)"><mask id="e" fill="#fff"><use xlink:href="#d"/></mask><path fill="#CCE6FF" d="M7.53 16.444l-.483.161C3.671 17.738.26 20.251.014 23.805c-.19 2.754 1.604 5.27 3.68 7.091 6.027 5.288 14.684 3.594 21.471 6.905 10.294 5.02-.704 15.339 8.055 19.9 4.162 2.166 9.062 2.187 13.753 2.295a246.713 246.713 0 0159.97 8.826c2.452.677 5.134 1.573 6.392 3.786.938 1.65.862 3.672 1.428 5.483 2.149 6.878 11.47 7.542 18.655 7.003A572.737 572.737 0 01244.85 87.63c7.543.912 15.516 2.086 23.055.459 3.006-.65 7.895-1.208 6.895-5.654-.453-2.013-2.032-3.55-3.536-4.963a21724.66 21724.66 0 00-5.945-5.583c-.64-.601 10.992-5.403 12.1-5.625 4.361-.874 9.081-.769 13.51-1.167 11.421-1.028 22.802-2.497 34.09-4.525 7.714-1.386 26.823-2.243 30.003-11.378 1.14-3.275.008-6.963.894-10.316 2.443-9.255 14.22-6.525 20.919-8.635 4.556-1.436 10.758-6.044 7.866-11.502-1.814-3.425-6.353-4.08-10.222-4.324L214.96 4.341C145.775-.029 74.455-5.854 7.53 16.444" mask="url(#e)"/></g><path fill="#B0CCED" d="M43.58 218.68c-3.316 3.197-4.411 9.168-1.02 12.284 1.664 1.53 3.99 2.057 6.2 2.527l29.9 6.361c2.64.562 5.407 1.185 7.427 2.976 1.762 1.562 2.73 3.823 4.25 5.622 3.5 4.139 9.321 5.278 14.682 6.085 68.865 10.37 140.19 8.129 206.886-11.912 13.327-4.005 27.116-9.158 36.022-19.852.55-.661 1.102-1.396 1.166-2.255.155-2.111-2.453-3.18-4.532-3.574-23.927-4.545-48.313-6.056-72.621-7.558l-89.421-5.527c-24.86-1.536-49.846-3.033-74.73-1.165-12.53.941-25.016 2.735-37.2 5.835-7.986 2.032-20.885 4.244-27.01 10.152"/><g transform="translate(228.2 .611)"><mask id="g" fill="#fff"><use xlink:href="#f"/></mask><path fill="#FFAC52" d="M73.91 132.63c-1.194.098-2.399.132-3.618.165 0 0-49.773 2.63-67.278-28.18-4.743-8.35-3.555-41.762 4.138-76.59C13.833-2.203 39.668.13 39.668.13c7.207-.022 15.345.65 24.536 2.184 2.725.452 5.309.964 7.75 1.52 41.895 9.516 43.076 32.794 44.06 41.094.028.246.054.555.079.913l-.001.007c.797 12.027-2.225 83.586-42.182 86.783" mask="url(#g)"/></g><path fill="#9BC12D" d="M378.54 167.39c-2.56 10.38-7.253 20.05-13.431 28.753-7.757 10.924-17.85 20.328-29.044 27.739-20.091 13.315-43.543 20.759-67.132 25.754a365.744 365.744 0 01-51.841 7.164c-19.773 1.285-39.708.948-59.41-1.3-13.352-1.52-26.594-3.919-39.61-7.27-15.762-4.063-31.105-9.705-45.843-16.609-12.653-5.925-25.512-13.606-32.453-26.215a38.598 38.598 0 01-1.185-2.333c-2.213-4.681-3.534-9.68-4.088-14.815-.502-4.763-.335-9.646.426-14.497 3.659-23.303 20.987-45.881 43.059-51.195.444-.106.889-.205 1.346-.289 18.584-3.681 46.028 6.663 64.373 10.069 20.308 3.778 32.013-.053 52.637-.977 8.702-.391 17.552-1.24 25.52-4.734.065-.026.143-.06.206-.093 6.253-2.782 11.59-7.006 16.53-11.782 4.918-4.762 9.447-10.082 14.114-15.082a205.082 205.082 0 0131.968-27.842c17.39-12.247 40.256-21.872 59.435-13.099.359.166.718.337 1.077.509 8.06 4.001 13.975 10.656 18.51 18.467 4.316 7.426 7.355 15.893 9.778 24.11 1.832 6.196 3.47 12.527 4.75 18.91 3.107 15.52 4.069 31.398.307 46.657"/><path fill="#7CA025" d="M211.548 137.334c-12.857 17.46-35.08 27.562-56.688 25.772-5.971-.495-12.014-1.897-16.998-5.224-9.895-6.606-13.616-19.132-16.639-30.639 3.402 4.836 7.83 8.42 13.084 11.132 18.3 9.444 40.011 12.092 60.045 7.322 6.564-1.563 13.703-2.59 17.196-8.363m42.421 110.371c11.749-3.855 29.353-6.314 38.559-9.14 18.966-5.824 30.385-9.276 45.05-22.638 19.031-17.341 27.764-48.56 24.391-74.87-.295-2.29-1.976-7.152-5.22-5.875-1.107.436-1.89 1.425-2.556 2.41-3.725 5.51-5.47 12.094-6.935 18.58-1.465 6.489-2.742 13.111-5.7 19.068-4.683 9.43-18.445 19.516-28.21 10.153-3.867-3.707-4.907-9.508-4.722-14.862.379-11.002 4.841-21.446 6.806-32.196 1.224-6.7 1.944-15.458-1.439-21.71-3.603-6.663-10.074-2.61-13.375 2.259-6.622 9.764-8.046 22.58-11.004 33.722a137.152 137.152 0 01-16.242 37.458c-4.878 7.802-10.83 15.025-18.465 19.767-4.153 2.578-8.36-.488-9.298-4.806-.527-2.435-.136-4.98.507-7.386 2.226-8.323 7.29-15.456 10.394-23.426 1.155-2.964 3.438-7.99 1.764-11.157-1.74-3.29-5.733-2.734-8.486-1.078-10.461 6.3-17.41 17.092-24.353 26.825-7.659 10.733-15.21 21.677-24.74 30.872-13.1 12.64-39.723 21.897-57.486 25.872 21.737 6.036 23.747 5.86 50.15 6.262 7.914.122 53.09-1.636 60.61-4.104"/><path fill="#D87430" d="M233.093 119.657a72.49 72.49 0 00-4.936 6.018 139.921 139.921 0 00-3.631 5.19h-.007c-4.16 6.153-7.336 7.935-13.113 11.202-9.163 5.19-19.787 9.228-30.176 10.908-14.964 2.417-31.553 2.438-43.747-6.554-8.588-6.335-12.628-15.667-22.1-20.49-.094-.056-.19-.098-.284-.147-.706-2.384.9-4.811 2.667-6.56 9.982-9.944 26.612-10.42 39.469-4.662 8.327 3.725 15.59 9.667 24.192 12.712 13.533 4.803 29.624 1.388 40.05-8.487 1.973-1.586 3.394-2.581 4.678-2.941 2.139-.62 3.846.568 6.938 3.81"/><path fill="#FFAC52" d="M236.861 116.403c-.519.013-1.163-.007-1.803.1-5.63.938-14.551 6.274-17.531 8.755-8.065 6.706-20.598 14.56-46.968 12.59-6.275-.468-12.008-3.826-17.579-6.76-6.13-3.215-11.993-7.144-18.684-8.933-6.592-1.773-13.887-.94-19.07 3.765-.913-2.472.84-5.109 2.75-6.922a27.533 27.533 0 015.442-4.01s.007-.007.014-.007c4.324-2.448 9.274-3.82 14.248-4.105 7.99-.468 15.98 1.682 23.02 5.38 6.667 3.498 12.82 8.03 19.89 10.707.277.113.554.213.839.312 8.225 2.907 17.381 2.802 25.636.051 4.152-1.38 8.163-3.432 11.613-6.144 4.475-3.522 9.404-7.226 15.452-6.184 1.149.195 2.08.426 2.731 1.405"/><path fill="#B5DB37" d="M48.222 157.401c-9.37 22.89 5.561 43.313 24.33 55.422 16.614 10.718 48.802 25.151 64.834 6.084 5.362-6.377 6.325-16.54.915-22.898-3.484-4.094-8.906-6.127-12.668-9.975-2.179-2.228-3.607-6.13-1.28-8.197 1.387-1.231 3.46-1.18 5.307-1.455 1.846-.275 3.965-1.396 3.918-3.24-.021-.851-.529-1.622-1.128-2.238-2.55-2.623-6.593-3.046-10.272-3.136-3.68-.091-7.636-.09-10.64-2.194-3.006-2.102-3.999-7.252-.878-9.168 1.742-1.069 4.238-.857 5.572-2.394 2.056-2.372-.676-5.835-3.289-7.606-10.332-7.007-26.26-14.343-39.195-13.083-12.03 1.17-21.4 14-25.526 24.078"/><path fill="#5A7617" d="M365.106 196.14c-7.753 10.924-17.849 20.333-29.038 27.744-20.097 13.314-43.545 20.754-67.133 25.756a365.707 365.707 0 01-51.842 7.161c-19.772 1.286-39.71.944-59.415-1.302-13.35-1.519-26.592-3.914-39.608-7.268-15.763-4.066-31.1-9.705-45.844-16.607-12.649-5.924-25.508-13.611-32.447-26.218a36.567 36.567 0 01-1.188-2.335c49.726 36.388 101.936 49.975 184.07 43.74 89.404-6.785 139.369-48.767 142.445-50.671"/><path fill="#9BC12D" d="M194.712 153.056c15.101-15.626 25.048-23.438 47.008-44.05-4.57 12.38-9.36 27.47-19.684 35.691-3.516 2.8-7.284 5.387-11.53 6.858-5.144 1.783-10.35 1.465-15.794 1.5"/><path fill="#B5DB37" d="M363.7 77.712c-1.707-2.943-12.827-4.657-16.007-5.318a72.794 72.794 0 00-16.784-1.473c-11.173.303-22.14 3.12-32.433 7.386-24.214 10.034-53.706 31.849-65.383 41.35 5.833-7.897 12.782-15.387 19.522-22.614 9.654-10.354 20.49-17.064 32.065-25.21 17.717-12.475 41.12-22.227 60.517-12.584 8.053 4 13.971 10.655 18.504 18.463M79.334 122.277c-21.37 9.488-37.95 29.041-44.405 51.483 3.659-23.302 20.987-45.88 43.06-51.194.443-.106.887-.205 1.345-.29"/><path fill="#FFE79C" d="M344.292 46.452c-1.97-6.922-4.543-13.651-9.027-19.206-2.68-3.323-5.966-6.103-9.378-8.656-7.856-5.894-16.543-10.698-25.733-14.146 41.895 9.517 43.076 32.795 44.06 41.095.029.247.054.555.078.913M180.59 126.963a13.448 13.448 0 01-.537-.086c-6.736-1.16-13.104-3.943-19.076-7.258-3.589-1.999-7.08-4.204-10.917-5.656-8.538-3.232-18.06-2.375-26.628 1.018 4.324-2.448 9.274-3.82 14.248-4.105 7.99-.468 15.98 1.682 23.02 5.38 6.667 3.498 12.82 8.03 19.89 10.707"/><path fill="#5A7617" d="M349.825 121.886c2.272 11.136-4.443 24.603-14.999 30.08-10.555 5.476-20.954.888-23.225-10.25-2.272-11.135 4.444-24.603 14.999-30.08 10.555-5.476 20.954-.887 23.225 10.25"/><path fill="#B5DB37" d="M335.875 110.372c-2.818-.084-5.815.652-8.792 2.197-10.15 5.266-16.634 18.248-14.453 28.938.996 4.885 3.68 8.595 7.56 10.447 4.156 1.985 9.183 1.66 14.152-.92 10.151-5.266 16.635-18.247 14.454-28.938-.996-4.884-3.68-8.595-7.56-10.448a13.295 13.295 0 00-5.36-1.276m-11.582 46.771a15.361 15.361 0 01-6.205-1.484c-4.488-2.142-7.03-7.385-8.161-12.93-2.356-11.548 5.096-27.545 16.023-33.214 5.569-2.888 11.464-3.334 16.23-1.058 4.486 2.143 6.945 7.18 8.077 12.724 2.355 11.547-5.218 27.858-16.144 33.528-3.303 1.713-6.65 2.529-9.82 2.434"/><path fill="#B5DB37" d="M339.465 122.38c.122.51.1.953-.077 1.354-.254.579-.851 1.123-1.775 1.618l-.048.024c-.2.104-.426.201-.67.286-.098.037-.2.069-.304.1-2.403.724-6.322.56-7.678-2.004-.02-.05-.372-.873.358-2.015a3.37 3.37 0 01.315-.405c.027-.028.05-.057.077-.086l.002-.004a5.3 5.3 0 011.381-1.004c1.035-.537 2.43-.9 4.057-.731 3.161.334 3.954 1.619 4.274 2.557.035.106.064.21.088.31m1.268 13.914c-.735 1.273-1.626 2.81-2.309 3.806-.642.969-1.573 2.013-2.562 2.868a1.11 1.11 0 01-.082.049l-.053.028-.05.04c-.775.68-1.628 1.237-2.467 1.605-.356.159-.733.299-1.12.421l-.042.013a7.624 7.624 0 01-.632.18c-1.377.355-3.501.635-5.789-.054-.824-.241-1.453-.536-1.98-.921l-.083-.042c-.01-.003-.02-.01-.033-.015-1.13-.882-1.633-2.126-2.12-3.97-.327-1.23-.546-2.972-.651-5.19.1.08.207.159.318.238a7.857 7.857 0 00.416.272c.045.026.09.055.136.08.117.07.239.138.364.206.037.018.069.037.106.055.159.084.325.164.496.242.053.023.102.046.153.067.134.058.272.118.41.176l.182.07c.181.073.368.141.562.21.011.001.02.006.033.011 1.357.474 3.008.856 4.762 1.104.148.022.294.041.44.06.316.039.628.074.934.104.403.041.798.071 1.177.092a26.27 26.27 0 001.894.048c.985-.014 1.872-.093 2.57-.23l.079-.014c.038-.008.075-.017.11-.022.24-.05.473-.1.704-.156.077-.017.15-.039.227-.058.151-.035.307-.075.455-.113.09-.023.176-.049.262-.074a14.275 14.275 0 00.671-.199c.12-.036.24-.072.36-.114.09-.03.184-.064.275-.094.112-.04.223-.077.334-.12.09-.033.183-.069.274-.104a16.821 16.821 0 00.578-.237c.098-.04.194-.086.288-.128.089-.04.178-.082.267-.124.045-.022.092-.042.136-.066"/><path fill="#B5DB37" d="M344.162 132.311c-.483.995-1.356 1.886-2.593 2.646l-.012.01a13.79 13.79 0 01-.137.08c-.086.05-.168.101-.258.148l-.057.033-.1.054-.098.054c-.09.047-.184.092-.276.14-.074.035-.147.074-.223.11-.116.055-.239.11-.361.16-.06.03-.122.058-.183.084-.136.057-.277.115-.418.169l-.16.064c-.149.058-.302.112-.458.166-.052.018-.103.038-.155.054-.156.055-.317.107-.477.155l-.164.053c-.163.049-.328.095-.494.14-.06.019-.115.034-.176.05-.168.047-.343.088-.517.133a2.525 2.525 0 00-.177.045c-.233.053-.473.105-.715.156l-.184.037c-.1.02-.204.036-.311.054-.6.093-1.33.15-2.134.163-.188.003-.379-.004-.57-.006a28.69 28.69 0 01-1.641-.066 27.798 27.798 0 01-1.71-.17c-.14-.017-.282-.036-.429-.056-1.718-.244-3.33-.619-4.655-1.081a13.401 13.401 0 01-.628-.232l-.067-.03a15.524 15.524 0 01-.513-.211c-.052-.026-.1-.052-.152-.073-.129-.062-.257-.122-.378-.185-.062-.032-.117-.064-.176-.097a6.81 6.81 0 01-.31-.17c-.059-.036-.117-.076-.175-.112a4.664 4.664 0 01-.259-.166c-.058-.04-.11-.082-.166-.122-.073-.055-.15-.109-.217-.163-.053-.043-.099-.09-.15-.133-.06-.055-.125-.109-.183-.163-.045-.046-.085-.092-.128-.136-.053-.06-.11-.118-.16-.178l-.015-.019a2.932 2.932 0 01-.323-.506c-1.26-2.584-1.294-4.764 2.26-8.265 1.812-1.784 4.34-2.784 5.932-3.277-.001.004-.004.005-.004.008l-.004.005a5.85 5.85 0 00-.14.284c-.014.028-.022.056-.033.081a3.644 3.644 0 00-.079.199c-.013.032-.023.066-.033.098a2.16 2.16 0 00-.052.166 6.752 6.752 0 00-.08.355c-.008.045-.015.09-.02.133l-.01.099c-.004.041-.01.082-.01.12l-.003.094c-.002.04-.001.074-.002.112a121.331 121.331 0 01.008.188l.007.077c.004.03.007.06.013.09a.536.536 0 00.009.07l.028.14.016.067c.005.018.008.034.014.05.004.021.011.039.017.056.002.013.009.027.011.041l.017.04a.094.094 0 00.011.031c.003.01.007.018.008.026.01.023.02.042.021.047.112.21.237.402.375.584.008.015.021.027.03.041.06.075.12.15.185.222a.261.261 0 01.039.044c.063.065.127.134.193.198.014.013.028.026.044.038.066.065.134.126.204.185.014.01.026.021.04.029.073.061.15.12.227.175.006.006.016.009.022.014.085.061.172.118.258.175l.003-.002c2.283 1.418 5.792 1.119 7.705.22a.237.237 0 00.036-.017c.047-.024.098-.047.146-.072l.055-.03c1.164-.624 1.908-1.334 2.279-2.175.043-.1.08-.201.114-.3l.026-.1a2.298 2.298 0 00.072-.328 2.164 2.164 0 00.035-.32c.003-.063.004-.13.003-.193 0-.026.002-.051 0-.075 4.923 2.715 5.047 7.199 3.85 9.67"/></g></g></svg>